<?xml version="1.0" encoding="UTF-8" standalone="no"?><svg xmlns="http://www.w3.org/2000/svg" xmlns:xlink="http://www.w3.org/1999/xlink" contentScriptType="text/ecmascript" zoomAndPan="magnify" contentStyleType="text/css" stroke="#000000" stroke-linecap="square" version="1" width="133" stroke-miterlimit="10" fill="#000000" preserveAspectRatio="xMidYMid meet" viewBox="0 0 133.01 39.24" height="39"><defs><clipPath id="a"><path d="M0 0V39.24H133.01V0Z"/></clipPath><clipPath id="b" clip-path="url(#a)"><path d="M-48.25 188h960V-352h-960Z"/></clipPath><clipPath id="c" clip-path="url(#b)"><path d="M5 34.25H128V5H5Z"/></clipPath><clipPath id="d" clip-path="url(#c)"><path d="M5 34.25l123 0V5L5 5Z"/></clipPath><clipPath id="aq" clip-path="url(#d)"><path d="M5 5V34.36l123.11 0V5"/></clipPath><clipPath id="e"><path d="M0 0V39.24H133.01V0Z"/></clipPath><clipPath id="f" clip-path="url(#e)"><path d="M-48.25 188h960V-352h-960Z"/></clipPath><clipPath id="g" clip-path="url(#f)"><path d="M5 34.25H128V5H5Z"/></clipPath><clipPath id="h" clip-path="url(#g)"><path d="M5 34.25l123 0V5L5 5Z"/></clipPath><clipPath id="ar" clip-path="url(#h)"><path d="M5 5V34.36l123.11 0V5"/></clipPath><clipPath id="i"><path d="M0 0V39.24H133.01V0Z"/></clipPath><clipPath id="j" clip-path="url(#i)"><path d="M-48.25 188h960V-352h-960Z"/></clipPath><clipPath id="k" clip-path="url(#j)"><path d="M5 34.25H128V5H5Z"/></clipPath><clipPath id="l" clip-path="url(#k)"><path d="M5 34.25l123 0V5L5 5Z"/></clipPath><clipPath id="as" clip-path="url(#l)"><path d="M5 5V34.36l123.11 0V5"/></clipPath><clipPath id="m"><path d="M0 0V39.24H133.01V0Z"/></clipPath><clipPath id="n" clip-path="url(#m)"><path d="M-48.25 188h960V-352h-960Z"/></clipPath><clipPath id="o" clip-path="url(#n)"><path d="M5 34.25H128V5H5Z"/></clipPath><clipPath id="p" clip-path="url(#o)"><path d="M5 34.25l123 0V5L5 5Z"/></clipPath><clipPath id="at" clip-path="url(#p)"><path d="M5 5V34.36l123.11 0V5"/></clipPath><clipPath id="q"><path d="M0 0V39.24H133.01V0Z"/></clipPath><clipPath id="r" clip-path="url(#q)"><path d="M-48.25 188h960V-352h-960Z"/></clipPath><clipPath id="s" clip-path="url(#r)"><path d="M5 34.25H128V5H5Z"/></clipPath><clipPath id="t" clip-path="url(#s)"><path d="M5 34.25l123 0V5L5 5Z"/></clipPath><clipPath id="au" clip-path="url(#t)"><path d="M5 5V34.36l123.11 0V5"/></clipPath><clipPath id="u"><path d="M0 0V39.24H133.01V0Z"/></clipPath><clipPath id="v" clip-path="url(#u)"><path d="M-48.25 188h960V-352h-960Z"/></clipPath><clipPath id="w" clip-path="url(#v)"><path d="M5 34.25H128V5H5Z"/></clipPath><clipPath id="x" clip-path="url(#w)"><path d="M5 34.25l123 0V5L5 5Z"/></clipPath><clipPath id="av" clip-path="url(#x)"><path d="M5 5V34.36l123.11 0V5"/></clipPath><clipPath id="y"><path d="M0 0V39.24H133.01V0Z"/></clipPath><clipPath id="z" clip-path="url(#y)"><path d="M-48.25 188h960V-352h-960Z"/></clipPath><clipPath id="A" clip-path="url(#z)"><path d="M5 34.25H128V5H5Z"/></clipPath><clipPath id="B" clip-path="url(#A)"><path d="M5 34.25l123 0V5L5 5Z"/></clipPath><clipPath id="aw" clip-path="url(#B)"><path d="M5 5V34.36l123.11 0V5"/></clipPath><clipPath id="C"><path d="M0 0V39.24H133.01V0Z"/></clipPath><clipPath id="D" clip-path="url(#C)"><path d="M-48.25 188h960V-352h-960Z"/></clipPath><clipPath id="E" clip-path="url(#D)"><path d="M5 34.25H128V5H5Z"/></clipPath><clipPath id="F" clip-path="url(#E)"><path d="M5 34.25l123 0V5L5 5Z"/></clipPath><clipPath id="ax" clip-path="url(#F)"><path d="M5 5V34.36l123.11 0V5"/></clipPath><clipPath id="G"><path d="M0 0V39.24H133.01V0Z"/></clipPath><clipPath id="H" clip-path="url(#G)"><path d="M-48.25 188h960V-352h-960Z"/></clipPath><clipPath id="I" clip-path="url(#H)"><path d="M5 34.25H128V5H5Z"/></clipPath><clipPath id="J" clip-path="url(#I)"><path d="M5 34.25l123 0V5L5 5Z"/></clipPath><clipPath id="ay" clip-path="url(#J)"><path d="M5 5V34.36l123.11 0V5"/></clipPath><clipPath id="K"><path d="M0 0V39.24H133.01V0Z"/></clipPath><clipPath id="L" clip-path="url(#K)"><path d="M-48.25 188h960V-352h-960Z"/></clipPath><clipPath id="M" clip-path="url(#L)"><path d="M5 34.25H128V5H5Z"/></clipPath><clipPath id="N" clip-path="url(#M)"><path d="M5 34.25l123 0V5L5 5Z"/></clipPath><clipPath id="az" clip-path="url(#N)"><path d="M5 5V34.36l123.11 0V5"/></clipPath><clipPath id="O"><path d="M0 0V39.24H133.01V0Z"/></clipPath><clipPath id="P" clip-path="url(#O)"><path d="M-48.25 188h960V-352h-960Z"/></clipPath><clipPath id="Q" clip-path="url(#P)"><path d="M5 34.25H128V5H5Z"/></clipPath><clipPath id="R" clip-path="url(#Q)"><path d="M5 34.25l123 0V5L5 5Z"/></clipPath><clipPath id="aA" clip-path="url(#R)"><path d="M5 5V34.36l123.11 0V5"/></clipPath><clipPath id="S"><path d="M0 0V39.24H133.01V0Z"/></clipPath><clipPath id="T" clip-path="url(#S)"><path d="M-48.25 188h960V-352h-960Z"/></clipPath><clipPath id="U" clip-path="url(#T)"><path d="M5 34.25H128V5H5Z"/></clipPath><clipPath id="V" clip-path="url(#U)"><path d="M5 34.25l123 0V5L5 5Z"/></clipPath><clipPath id="aB" clip-path="url(#V)"><path d="M5 5V34.36l123.11 0V5"/></clipPath><clipPath id="W"><path d="M0 0V39.24H133.01V0Z"/></clipPath><clipPath id="X" clip-path="url(#W)"><path d="M-48.25 188h960V-352h-960Z"/></clipPath><clipPath id="Y" clip-path="url(#X)"><path d="M5 34.25H128V5H5Z"/></clipPath><clipPath id="Z" clip-path="url(#Y)"><path d="M5 34.25l123 0V5L5 5Z"/></clipPath><clipPath id="aC" clip-path="url(#Z)"><path d="M5 5V34.36l123.11 0V5"/></clipPath><clipPath id="aa"><path d="M0 0V39.24H133.01V0Z"/></clipPath><clipPath id="ab" clip-path="url(#aa)"><path d="M-48.25 188h960V-352h-960Z"/></clipPath><clipPath id="ac" clip-path="url(#ab)"><path d="M5 34.25H128V5H5Z"/></clipPath><clipPath id="ad" clip-path="url(#ac)"><path d="M5 34.25l123 0V5L5 5Z"/></clipPath><clipPath id="aD" clip-path="url(#ad)"><path d="M5 5V34.36l123.11 0V5"/></clipPath><clipPath id="ae"><path d="M0 0V39.24H133.01V0Z"/></clipPath><clipPath id="af" clip-path="url(#ae)"><path d="M-48.25 188h960V-352h-960Z"/></clipPath><clipPath id="ag" clip-path="url(#af)"><path d="M5 34.25H128V5H5Z"/></clipPath><clipPath id="ah" clip-path="url(#ag)"><path d="M5 34.25l123 0V5L5 5Z"/></clipPath><clipPath id="aE" clip-path="url(#ah)"><path d="M5 5V34.36l123.11 0V5"/></clipPath><clipPath id="ai"><path d="M0 0V39.24H133.01V0Z"/></clipPath><clipPath id="aj" clip-path="url(#ai)"><path d="M-48.25 188h960V-352h-960Z"/></clipPath><clipPath id="ak" clip-path="url(#aj)"><path d="M5 34.25H128V5H5Z"/></clipPath><clipPath id="al" clip-path="url(#ak)"><path d="M5 34.25l123 0V5L5 5Z"/></clipPath><clipPath id="aF" clip-path="url(#al)"><path d="M5 5V34.36l123.11 0V5"/></clipPath><clipPath id="am"><path d="M0 0V39.24H133.01V0Z"/></clipPath><clipPath id="an" clip-path="url(#am)"><path d="M-48.25 188h960V-352h-960Z"/></clipPath><clipPath id="ao" clip-path="url(#an)"><path d="M5 34.25H128V5H5Z"/></clipPath><clipPath id="ap" clip-path="url(#ao)"><path d="M5 34.25l123 0V5L5 5Z"/></clipPath><clipPath id="aG" clip-path="url(#ap)"><path d="M5 5V34.36l123.11 0V5"/></clipPath></defs><g><g fill="#ffffff" stroke-width="2" stroke-linejoin="round" stroke-linecap="butt" stroke="none"><path d="M37.42 13.77l-1.2-3.09-1.25 3.09h2.45Zm.8 2.1H34.11L33.1 18.34H30.69l5.6-13.18h.14l5.6 13.18H39.19l-.97-2.48Z" clip-path="url(#aq)"/><path d="M56.6 5.15V18.34H54.16V12.29l-4.04 5.87h-.04l-3.89-5.48v5.66H43.82V5.15h.01l6.29 9.1 6.44-9.1h.03Z" clip-path="url(#ar)"/><path d="M65.12 13.77l-1.18-3.09-1.25 3.09h2.44Zm.82 2.1H61.82l-1.01 2.48H58.41L64 5.17h.12l5.6 13.18H66.89l-.95-2.48Z" clip-path="url(#as)"/><path d="M74.88 15.92h6.34v2.42H70.69L77 8.07H73.21c-.38 0-.75-.12-1.1-.36-.35-.25-.53-.54-.53-.88V5.03h2.25v.24c0 .19.03.32.07.36s.12.06.22.06c.1-.01.19-.01.26-.01h6.89L74.88 15.92Z" clip-path="url(#at)"/><path d="M85.98 14.06c.34.61.8 1.1 1.4 1.46.59.36 1.24.54 1.96.54.7 0 1.32-.18 1.91-.54.57-.36 1.02-.85 1.35-1.46.31-.61.48-1.29.48-2.03 0-.77-.16-1.45-.5-2.07-.33-.63-.79-1.11-1.38-1.47-.57-.36-1.21-.54-1.92-.54s-1.35.18-1.93.54c-.57.36-1.04.85-1.38 1.47s-.5 1.31-.5 2.07c0 .72.18 1.41.52 2.03ZM83.79 8.8c.57-1 1.33-1.8 2.31-2.38.97-.6 2.02-.89 3.16-.89 1.13 0 2.18.29 3.16.89.97.58 1.74 1.38 2.31 2.38.58 1 .87 2.07.87 3.23 0 1.17-.29 2.24-.87 3.23-.57.99-1.35 1.77-2.31 2.35-.98.58-2.03.88-3.16.88-1.16 0-2.21-.29-3.17-.88s-1.73-1.36-2.3-2.35-.86-2.06-.86-3.23c0-1.16.29-2.23.86-3.23Z" clip-path="url(#au)"/><path d="M109.23 5.67V18.86h-.07l-8.68-8.02.04 7.5H98.06V5.17h.1l8.66 8.13-.05-7.63h2.47Z" clip-path="url(#av)"/><path d="M114.88 18.34h-2.45V5.67l2.45 0V18.34Z" clip-path="url(#aw)"/><path d="M123.4 13.77l-1.2-3.09-1.25 3.09h2.45Zm.8 2.1H120.1l-1.01 2.48h-2.41l5.6-13.18h.14l5.6 13.18h-2.83l-.97-2.48Z" clip-path="url(#ax)"/><path d="M39.3 21.1v2.41H33.31v2.69h5.3V28.6h-5.3v2.73h6.22v2.41l-8.66 0V21.1H39.3Z" clip-path="url(#ay)"/><path d="M54.78 20.59V33.74H52.35V27.71l-4.03 5.84h-.03l-3.88-5.47v5.65H42.05V20.59h.01l6.26 9.07 6.41-9.07h.04Z" clip-path="url(#az)"/><path d="M63.24 27c.29-.22.48-.47.61-.75.12-.29.18-.56.18-.82 0-.45-.12-.88-.38-1.29s-.76-.63-1.5-.63H60.41v3.8h1.73c.45 0 .83-.1 1.1-.31Zm1.99-4.76c.82.77 1.24 1.8 1.24 3.12 0 .75-.15 1.46-.44 2.12s-.75 1.2-1.39 1.63c-.64.42-1.47.63-2.49.63H60.41v4.01H57.97V21.1h3.75c1.51 0 2.68.38 3.51 1.14Z" clip-path="url(#aA)"/><path d="M71.08 27.31h1.73c.65 0 1.14-.19 1.44-.58.3-.4.45-.82.45-1.28s-.12-.89-.38-1.31-.76-.63-1.5-.63H71.08v3.8Zm4.24 6.43l-2.61-4.02H71.08v4.02H68.65V21.1h3.75c1.54 0 2.72.38 3.57 1.14s1.27 1.8 1.27 3.12c0 .78-.16 1.5-.48 2.18s-.8 1.21-1.47 1.6l2.87 4.59H75.32Z" clip-path="url(#aB)"/><path d="M88.6 21.1v2.41H82.61v2.69h5.3V28.6h-5.3v2.73h6.22v2.41l-8.66 0V21.1H88.6Z" clip-path="url(#aC)"/><path d="M102.49 21.1V34.24h-.07l-8.65-7.97.04 7.47H91.35V20.6h.09l8.63 8.1-.04-7.6h2.45Z" clip-path="url(#aD)"/><path d="M109.55 31.33c1.25 0 2.26-.33 3-1 .75-.65 1.12-1.61 1.12-2.87 0-1-.21-1.8-.61-2.39s-.89-1-1.43-1.24c-.54-.22-1.06-.35-1.54-.35h-1.98v7.85h1.44ZM105.67 21.1h3.69c1.58 0 2.87.31 3.9.93s1.76 1.43 2.22 2.42c.48.99.71 2.05.71 3.19 0 1.21-.29 2.28-.84 3.2-.56.93-1.31 1.64-2.26 2.14-.94.5-1.99.75-3.12.75h-4.29V21.1Z" clip-path="url(#aE)"/><path d="M127.04 21.1v2.41h-5.99v2.69h5.31V28.6h-5.31v2.73h6.24v2.41l-8.67 0V21.1h8.43Z" clip-path="url(#aF)"/><path d="M24.97 14.3c-.82.76-7.19-.35-10.46.65-2.87.89-4.94 2.78-6.17 4.93-2.4 4.2-1.61 8.98 1.66 12.58.22.24 1.62 1.21.64 1.6-.48.19-1.5-.65-1.77-.88C1.73 27.33 5 15.2 14.34 12.87c1.87-.46 3.23-.4 5.16-.4 1.06 0 4.62-.13 5.36.1.19.39.4 1.27.11 1.73ZM16.23 8.67c1.05-.08 5.35-.17 6.26 0 .65.13 1.69.86 1.59 1.53-.11.78-2 .46-2.7.46-4.75 0-7.01-.27-10.89 1.79-1.38.74-2.74 1.92-3.57 2.88-.48.56-1.48.71-.95-.96 1.16-3.58 6.74-5.44 10.25-5.71Zm-2-3.63c-4.74.61-7.61 4.91-4.18 3.35.82-.36 1.84-.77 2.79-1 1.05-.27 2.06-.43 3.19-.53 1.87-.14 4.37.37 3.76-.85-.1-.22-.33-.29-.59-.39-1.74-.63-3.04-.81-4.97-.58Zm9.42 18.77c.01 2.28-.07 3.59-1.16 5.22-3.1 4.61-9.87 3.31-11.37-2-1.1-3.98 1.65-7.07 4.38-7.92 2-.63 8.09-.03 9.16-.28.56-.11.49-.56.42-1.15s-.14-.79-.72-.81H20.19c-2.75-.01-4.86-.21-7.14 1.18-2.93 1.8-4.66 5.3-3.94 8.85.42 2.16 1.5 3.87 2.98 5.07 3.99 3.23 9.71 2.05 12.08-1.92 1.55-2.59 1.5-4.93 1.27-7.85-.08-1.06-.19-1.57-1.28-1.57l-6.51-.01c-4.64-.01-6.78 5.25-3.28 8.41 2.57 2.31 7.41.63 7.54-3.66.04-1.21-.23-.99-2.53-.99-1.05 0-2.49-.21-2.93.47-.27.43-.16.96.18 1.25.46.39 2.42.24 3.12.25.03.68-1.2 1.59-2.08 1.73-3.55.56-4.68-5.51.08-5.5l4.59.01c1.32 0 1.32.03 1.31 1.22Z" fill-rule="evenodd" clip-path="url(#aG)"/></g></g></svg>